<svg width="24" height="24" viewBox="0 0 24 24" fill="none" xmlns="http://www.w3.org/2000/svg">
<g clip-path="url(#clip0_422_1467)">
<path d="M14.7766 21.7289L15.1539 24.0306C15.233 24.5137 15.891 24.5137 15.9701 24.0306L16.3474 21.7289C16.8007 18.9626 18.8539 16.7956 21.4759 16.3172L23.6572 15.9191C24.115 15.8357 24.115 15.1413 23.6572 15.0579L21.4764 14.6598C18.8544 14.1814 16.8012 12.0144 16.3479 9.24807L15.9706 6.94642C15.8915 6.46328 15.2335 6.46275 15.1544 6.94642L14.7801 9.23012C14.3248 12.0075 12.2631 14.183 9.63103 14.6635L7.46731 15.0584C7.00894 15.1419 7.00894 15.8362 7.46731 15.9196L9.64904 16.3178C12.2706 16.7962 14.3238 18.9632 14.7776 21.7295L14.7766 21.7289Z" fill="#191C25" fill-opacity="0.95"/>
<path d="M10.192 5.88562C10.4427 5.83968 10.4427 5.46003 10.192 5.4141L8.73432 5.14797C7.16557 4.86178 5.93709 3.56549 5.66538 1.91013L5.41318 0.372004C5.36964 0.107464 5.00986 0.107464 4.96632 0.372004L4.71612 1.89957C4.44391 3.56179 3.20993 4.86337 1.63517 5.15061L0.188024 5.41462C-0.0626748 5.46056 -0.0626748 5.84021 0.188024 5.88615L1.64618 6.15227C3.21493 6.43846 4.44341 7.73476 4.71462 9.39011L4.96682 10.9282C5.01036 11.1928 5.37014 11.1928 5.41368 10.9282L5.66588 9.39011C5.93709 7.73476 7.16557 6.43846 8.73432 6.15227L10.1925 5.88615L10.192 5.88562Z" fill="#191C25" fill-opacity="0.95"/>
<path d="M16.6841 2.51422L17.3552 2.63672C18.1738 2.78615 18.8153 3.46307 18.957 4.32692L19.073 5.035C19.0981 5.1876 19.3057 5.1876 19.3307 5.035L19.4468 4.32692C19.5885 3.46307 20.2295 2.78615 21.0486 2.63672L21.7196 2.51422C21.8643 2.48782 21.8643 2.26869 21.7196 2.24229L21.0486 2.11978C20.23 1.97035 19.5885 1.29343 19.4468 0.429583L19.3307 -0.278495C19.3057 -0.431094 19.0981 -0.431094 19.073 -0.278495L18.958 0.423775C18.8158 1.29132 18.1718 1.97088 17.3497 2.12084L16.6841 2.24229C16.5395 2.26869 16.5395 2.48782 16.6841 2.51422Z" fill="#191C25" fill-opacity="0.95"/>
</g>
<defs>
<clipPath id="clip0_422_1467">
<rect width="24" height="24" fill="white"/>
</clipPath>
</defs>
</svg>
