<svg width="82" height="45" viewBox="0 0 82 45" fill="none" xmlns="http://www.w3.org/2000/svg">
<g clip-path="url(#clip0_217_171)">
<path d="M75.1885 40.2853L77.1056 44.7951H82.0002L73.0936 23.9376H68.6365L59.73 44.7951H64.6245L66.5417 40.2853H75.1876H75.1885ZM70.8817 30.1418L73.4473 36.2007H68.2837L70.8826 30.1418H70.8817Z" fill="#BC2814"/>
<path d="M35.2983 4.50208H41.1352V21.3339H45.735V4.50208H51.5719V0.476315H35.2983V4.50208Z" fill="#BC2814"/>
<path d="M59.6881 0.476315H55.0874V21.3339H59.6881V0.476315Z" fill="#BC2814"/>
<path d="M55.0701 37.3669L44.9615 23.9385H40.6548V44.796H45.2554V31.7246L55.0701 44.796H59.6708V23.9385H55.0701V37.3669Z" fill="#BC2814"/>
<path d="M28.2584 16.9001C27.7791 17.2657 27.1144 17.4533 26.2737 17.4533C25.3314 17.4533 24.3395 17.2061 23.3134 16.7133C22.2874 16.2197 21.2194 15.4876 20.1088 14.5003L17.3672 17.9046C19.9832 20.3466 22.9179 21.5724 26.1815 21.5724C28.4438 21.5724 30.2686 20.9941 31.657 19.828C33.0444 18.6618 33.7339 17.1473 33.7339 15.2749C33.7339 13.4025 33.1956 11.9813 32.1106 11.0114C31.0256 10.0329 29.5117 9.30066 27.5527 8.8157C25.6014 8.33074 24.348 7.90543 23.8098 7.54755C23.2716 7.19053 23.0024 6.7047 23.0024 6.10045C23.0024 5.4962 23.2212 5.00259 23.6586 4.63693C24.1046 4.27127 24.7103 4.08368 25.4749 4.08368C27.3844 4.08368 29.234 4.77265 31.017 6.14281L33.3468 2.73859C32.3293 1.87068 31.1264 1.18949 29.756 0.713175C28.3771 0.236861 26.9974 -0.00172806 25.627 -0.00172806C23.5159 -0.00172806 21.7671 0.534233 20.3625 1.60702C18.958 2.67894 18.2514 4.21075 18.2514 6.18517C18.2514 8.15958 18.8068 9.6231 19.9166 10.542C21.0263 11.4696 22.7846 12.2182 25.181 12.7974C26.6949 13.1717 27.7039 13.546 28.2174 13.9203C28.73 14.286 28.9829 14.7796 28.9829 15.4098C28.9829 16.0399 28.7471 16.5327 28.2592 16.8992L28.2584 16.9001Z" fill="#BC2814"/>
<path d="M20.1257 41.9104C22.2111 43.9696 24.7767 44.9991 27.8208 44.9991C30.8648 44.9991 33.4389 43.9696 35.5244 41.9104C37.6013 39.8513 38.6445 37.2899 38.6445 34.2263C38.6445 31.1627 37.6013 28.6013 35.5244 26.5422C33.4389 24.4831 30.8733 23.4613 27.8208 23.4613C24.7682 23.4613 22.2111 24.4822 20.1257 26.5422C18.0402 28.6013 16.9971 31.1627 16.9971 34.2263C16.9971 37.2899 18.0402 39.8513 20.1257 41.9104ZM23.4901 29.4865C24.6674 28.176 26.1223 27.5121 27.8378 27.5121C29.5534 27.5121 31.0083 28.176 32.1856 29.4865C33.3714 30.797 33.9601 32.3798 33.9601 34.2436C33.9601 36.1074 33.3714 37.6815 32.1856 38.9921C31.0083 40.2939 29.5619 40.9405 27.8378 40.9405C26.1138 40.9405 24.6674 40.2939 23.4901 38.9921C22.3128 37.6815 21.7156 36.1074 21.7156 34.2436C21.7156 32.3798 22.3128 30.797 23.4901 29.4865Z" fill="#BC2814"/>
<path d="M4.58356 44.796V38.9756H7.32515C10.3777 38.9756 12.6409 38.38 14.1292 37.1802C15.6097 35.9889 16.3496 34.1079 16.3496 31.5292C16.3496 28.9506 15.6345 27.0444 14.1881 25.8022C12.7417 24.56 10.4367 23.9385 7.2662 23.9385H0V44.796H4.58356ZM4.58356 27.9374H7.20725C8.72115 27.9374 9.83949 28.1838 10.5546 28.6947C11.2782 29.1969 11.631 30.0562 11.631 31.2561C11.631 32.4559 11.3619 33.3748 10.8066 34.005C10.2598 34.6352 9.21667 34.9499 7.68654 34.9499H4.58356V27.9374Z" fill="#BC2814"/>
<path d="M0.00854345 21.3252H14.2727V17.0704H0V21.3252H0.00854345Z" fill="#BC2814"/>
<path d="M0.00854345 4.7398H14.2727V0.484959H0V4.7398H0.00854345Z" fill="#BC2814"/>
<path d="M0.00854345 13.0368H14.2641L14.2727 13.0282V8.78198L14.2641 8.77334H0.00854345C0 8.77334 0 8.78198 0 8.78198V13.0282C0 13.0282 0 13.0368 0.00854345 13.0368Z" fill="#BC2814"/>
</g>
<defs>
<clipPath id="clip0_217_171">
<rect width="82" height="45" fill="white"/>
</clipPath>
</defs>
</svg>
