<svg width="156" height="85" viewBox="0 0 156 85" fill="none" xmlns="http://www.w3.org/2000/svg">
<g clip-path="url(#clip0_490_1292)">
<path d="M143.041 76.0943L146.688 84.6129H156L139.055 45.2153H130.576L113.632 84.6129H122.943L126.591 76.0943H143.039H143.041ZM134.847 56.9343L139.728 68.379H129.905L134.849 56.9343H134.847Z" fill="white"/>
<path d="M67.1523 8.50412H78.2567V40.2975H87.0075V8.50412H98.1118V0.899902H67.1523V8.50412Z" fill="white"/>
<path d="M113.552 0.899902H104.8V40.2975H113.552V0.899902Z" fill="white"/>
<path d="M104.768 70.5821L85.5371 45.2173H77.3438V84.6149H86.0962V59.9244L104.768 84.6149H113.521V45.2173H104.768V70.5821Z" fill="white"/>
<path d="M53.7599 31.9222C52.848 32.6129 51.5835 32.9672 49.9842 32.9672C48.1914 32.9672 46.3044 32.5002 44.3524 31.5695C42.4004 30.6371 40.3687 29.2541 38.2557 27.3894L33.04 33.8196C38.0168 38.4324 43.5999 40.7478 49.8087 40.7478C54.1126 40.7478 57.5843 39.6554 60.2255 37.4527C62.865 35.25 64.1766 32.3892 64.1766 28.8524C64.1766 25.3157 63.1527 22.6312 61.0885 20.7992C59.0243 18.9508 56.1442 17.5678 52.4173 16.6517C48.7051 15.7357 46.3207 14.9323 45.2967 14.2563C44.2728 13.582 43.7608 12.6643 43.7608 11.5229C43.7608 10.3816 44.1769 9.44919 45.009 8.75849C45.8575 8.06779 47.0098 7.71346 48.4645 7.71346C52.0971 7.71346 55.616 9.01485 59.0081 11.6029L63.4404 5.17274C61.5046 3.53335 59.2161 2.24666 56.6091 1.34695C53.9858 0.447251 51.3609 -0.00341797 48.7538 -0.00341797C44.7376 -0.00341797 41.4105 1.00895 38.7385 3.03533C36.0664 5.06007 34.7223 7.95349 34.7223 11.6829C34.7223 15.4124 35.7787 18.1768 37.89 19.9125C40.0014 21.6646 43.3463 23.0786 47.9054 24.1727C50.7855 24.8797 52.705 25.5867 53.6818 26.2937C54.657 26.9844 55.1381 27.9168 55.1381 29.1072C55.1381 30.2975 54.6895 31.2282 53.7615 31.9206L53.7599 31.9222Z" fill="white"/>
<path d="M38.2879 79.1644C42.2554 83.0538 47.1363 84.9986 52.9274 84.9986C58.7184 84.9986 63.6156 83.0538 67.583 79.1644C71.5342 75.2749 73.5188 70.4367 73.5188 64.6499C73.5188 58.863 71.5342 54.0249 67.583 50.1354C63.6156 46.246 58.7347 44.3159 52.9274 44.3159C47.12 44.3159 42.2554 46.2443 38.2879 50.1354C34.3205 54.0249 32.3359 58.863 32.3359 64.6499C32.3359 70.4367 34.3205 75.2749 38.2879 79.1644ZM44.6885 55.6969C46.9282 53.2215 49.6962 51.9675 52.9599 51.9675C56.2235 51.9675 58.9915 53.2215 61.2312 55.6969C63.4872 58.1723 64.607 61.1621 64.607 64.6825C64.607 68.203 63.4872 71.1764 61.2312 73.6518C58.9915 76.1109 56.2398 77.3323 52.9599 77.3323C49.6799 77.3323 46.9282 76.1109 44.6885 73.6518C42.4488 71.1764 41.3127 68.203 41.3127 64.6825C41.3127 61.1621 42.4488 58.1723 44.6885 55.6969Z" fill="white"/>
<path d="M8.71994 84.6149V73.6208H13.9357C19.743 73.6208 24.0485 72.4958 26.8799 70.2294C29.6966 67.9793 31.1041 64.4262 31.1041 59.5554C31.1041 54.6846 29.7437 51.0841 26.992 48.7377C24.2403 46.3913 19.8551 45.2173 13.8235 45.2173H0V84.6149H8.71994ZM8.71994 52.7709H13.7114C16.5915 52.7709 18.719 53.2362 20.0794 54.2013C21.4561 55.15 22.1274 56.773 22.1274 59.0394C22.1274 61.3058 21.6154 63.0415 20.5589 64.2319C19.5187 65.4223 17.5342 66.0166 14.6232 66.0166H8.71994V52.7709Z" fill="white"/>
<path d="M0.0162534 40.2811H27.1529V32.2441H0V40.2811H0.0162534Z" fill="white"/>
<path d="M0.0162534 8.95294H27.1529V0.916016H0V8.95294H0.0162534Z" fill="white"/>
<path d="M0.0162534 24.625H27.1367L27.1529 24.6087V16.5881L27.1367 16.5718H0.0162534C0 16.5718 0 16.5881 0 16.5881V24.6087C0 24.6087 0 24.625 0.0162534 24.625Z" fill="white"/>
</g>
<defs>
<clipPath id="clip0_490_1292">
<rect width="156" height="85" fill="white"/>
</clipPath>
</defs>
</svg>
