<svg width="40" height="40" viewBox="0 0 40 40" fill="none" xmlns="http://www.w3.org/2000/svg">
<g clip-path="url(#clip0_314_1054)">
<path d="M11.9104 17.8328L12.2146 19.6882C12.2783 20.0777 12.8088 20.0777 12.8725 19.6882L13.1766 17.8328C13.5421 15.6029 15.1972 13.856 17.3109 13.4704L19.0692 13.1495C19.4383 13.0822 19.4383 12.5225 19.0692 12.4552L17.3113 12.1343C15.1976 11.7487 13.5425 10.0018 13.177 7.77185L12.8729 5.91647C12.8092 5.527 12.2787 5.52657 12.215 5.91647L11.9133 7.75738C11.5462 9.99627 9.88429 11.7499 7.76253 12.1373L6.01833 12.4557C5.64884 12.5229 5.64884 13.0826 6.01833 13.1499L7.77705 13.4708C9.89034 13.8565 11.5454 15.6033 11.9113 17.8333L11.9104 17.8328Z" fill="#F7F6F4"/>
<path d="M8.21587 5.06135C8.41796 5.02432 8.41796 4.71828 8.21587 4.68125L7.04083 4.46672C5.77625 4.23602 4.78596 3.19106 4.56692 1.85667L4.36362 0.616761C4.32853 0.403513 4.0385 0.403513 4.00341 0.616761L3.80172 1.84815C3.58228 3.18808 2.58756 4.2373 1.31813 4.46885L0.151569 4.68167C-0.0505229 4.7187 -0.0505229 5.02474 0.151569 5.06177L1.32701 5.2763C2.59159 5.507 3.58188 6.55196 3.80051 7.88635L4.00381 9.12626C4.03891 9.33951 4.32893 9.33951 4.36403 9.12626L4.56733 7.88635C4.78596 6.55196 5.77625 5.507 7.04083 5.2763L8.21627 5.06177L8.21587 5.06135Z" fill="#F7F6F4"/>
<path d="M13.4488 2.3436L13.9897 2.44235C14.6496 2.56281 15.1667 3.10849 15.2809 3.80484L15.3745 4.37563C15.3946 4.49864 15.562 4.49864 15.5822 4.37563L15.6758 3.80484C15.79 3.10849 16.3067 2.56281 16.967 2.44235L17.5079 2.3436C17.6245 2.32232 17.6245 2.14568 17.5079 2.1244L16.967 2.02565C16.3071 1.90519 15.79 1.35951 15.6758 0.663155L15.5822 0.0923654C15.562 -0.0306461 15.3946 -0.0306461 15.3745 0.0923654L15.2817 0.658473C15.1671 1.35781 14.648 1.90561 13.9853 2.0265L13.4488 2.1244C13.3322 2.14568 13.3322 2.32232 13.4488 2.3436Z" fill="#F7F6F4"/>
<path d="M39.4868 36.8447L27.9764 24.6989C29.3612 22.7069 30.1825 20.253 30.1881 17.6004C30.2023 11.0051 25.1516 5.58872 18.9021 5.50019C18.7072 5.49763 18.5132 5.50019 18.3204 5.50742C17.7706 5.52913 17.3366 6.00798 17.3366 6.58814C17.3366 7.19936 17.8166 7.69141 18.3954 7.66885C18.5495 7.66289 18.7044 7.66076 18.8601 7.66289C24.0463 7.72844 28.2241 12.2701 28.137 17.7422C28.0511 23.1296 23.8713 27.4839 18.746 27.4839C14.0842 27.4839 10.2053 23.8812 9.47679 19.1762C9.39571 18.6513 8.96853 18.2649 8.46472 18.2649C7.83263 18.2649 7.3514 18.8629 7.45305 19.5214C8.33846 25.2557 13.0648 29.647 18.7456 29.647C21.2695 29.647 23.6046 28.7796 25.4989 27.3132L37.0092 39.459C37.6934 40.1809 38.8022 40.1809 39.4864 39.459C40.1705 38.7371 40.1705 37.567 39.4864 36.8451L39.4868 36.8447Z" fill="#F7F6F4"/>
</g>
<defs>
<clipPath id="clip0_314_1054">
<rect width="40" height="40" fill="white"/>
</clipPath>
</defs>
</svg>
