<svg width="24" height="24" viewBox="0 0 24 24" fill="none" xmlns="http://www.w3.org/2000/svg">
<g clip-path="url(#clip0_289_195)">
<path d="M7.14637 10.6997L7.32885 11.8129C7.36709 12.0466 7.68536 12.0466 7.7236 11.8129L7.90609 10.6997C8.12536 9.36173 9.11839 8.31362 10.3866 8.08224L11.4416 7.88968C11.6631 7.84932 11.6631 7.51349 11.4416 7.47314L10.3868 7.28058C9.11863 7.0492 8.1256 6.00109 7.90633 4.66311L7.72384 3.54988C7.6856 3.3162 7.36734 3.31595 7.3291 3.54988L7.14806 4.65443C6.92782 5.99777 5.93067 7.04996 4.65762 7.28236L3.6111 7.47339C3.3894 7.51375 3.3894 7.84958 3.6111 7.88993L4.66633 8.08249C5.9343 8.31387 6.92733 9.36198 7.14685 10.7L7.14637 10.6997Z" fill="#9DBEB7"/>
<path d="M4.92952 3.03681C5.05078 3.01459 5.05078 2.83097 4.92952 2.80875L4.2245 2.68003C3.46575 2.54161 2.87158 1.91464 2.74016 1.114L2.61817 0.370055C2.59712 0.242106 2.4231 0.242106 2.40205 0.370055L2.28103 1.10889C2.14937 1.91285 1.55253 2.54238 0.79088 2.68131L0.0909412 2.809C-0.0303137 2.83122 -0.0303137 3.01484 0.0909412 3.03706L0.796204 3.16578C1.55496 3.3042 2.14913 3.93117 2.28031 4.73181L2.40229 5.47575C2.42334 5.6037 2.59736 5.6037 2.61842 5.47575L2.7404 4.73181C2.87158 3.93117 3.46575 3.3042 4.2245 3.16578L4.92976 3.03706L4.92952 3.03681Z" fill="#9DBEB7"/>
<path d="M8.06906 1.40616L8.39362 1.46541C8.78957 1.53769 9.09985 1.86509 9.16834 2.28291L9.22449 2.62538C9.23659 2.69919 9.33703 2.69919 9.34914 2.62538L9.40528 2.28291C9.47378 1.86509 9.78381 1.53769 10.18 1.46541L10.5046 1.40616C10.5745 1.39339 10.5745 1.28741 10.5046 1.27464L10.18 1.21539C9.78406 1.14311 9.47378 0.815707 9.40528 0.397894L9.34914 0.05542C9.33703 -0.0183869 9.23659 -0.0183869 9.22449 0.05542L9.16883 0.395085C9.10009 0.814686 8.7886 1.14337 8.39096 1.2159L8.06906 1.27464C7.99912 1.28741 7.99912 1.39339 8.06906 1.40616Z" fill="#9DBEB7"/>
<path d="M23.6923 22.1068L16.7861 14.8193C17.6169 13.6241 18.1097 12.1518 18.1131 10.5603C18.1216 6.60303 15.0911 3.35323 11.3414 3.30011C11.2245 3.29858 11.1081 3.30011 10.9924 3.30445C10.6626 3.31748 10.4021 3.60479 10.4021 3.95288C10.4021 4.31962 10.6902 4.61485 11.0375 4.60131C11.1299 4.59773 11.2228 4.59646 11.3163 4.59773C14.428 4.63706 16.9347 7.36204 16.8824 10.6453C16.8308 13.8777 14.323 16.4903 11.2478 16.4903C8.45069 16.4903 6.12337 14.3287 5.68627 11.5057C5.63762 11.1908 5.38132 10.9589 5.07903 10.9589C4.69977 10.9589 4.41103 11.3177 4.47203 11.7128C5.00327 15.1534 7.83909 17.7882 11.2475 17.7882C12.7619 17.7882 14.163 17.2677 15.2995 16.3879L22.2057 23.6754C22.6162 24.1085 23.2815 24.1085 23.692 23.6754C24.1025 23.2423 24.1025 22.5402 23.692 22.1071L23.6923 22.1068Z" fill="#9DBEB7"/>
</g>
<defs>
<clipPath id="clip0_289_195">
<rect width="24" height="24" fill="white"/>
</clipPath>
</defs>
</svg>
